<?xml version="1.0" standalone="no"?>
<!DOCTYPE svg PUBLIC "-//W3C//DTD SVG 20010904//EN"
 "http://www.w3.org/TR/2001/REC-SVG-20010904/DTD/svg10.dtd">
<svg version="1.0" xmlns="http://www.w3.org/2000/svg"
 width="561.000000pt" height="561.000000pt" viewBox="0 0 561.000000 561.000000"
 preserveAspectRatio="xMidYMid meet">
<metadata>
Created by potrace 1.14, written by Peter Selinger 2001-2017
</metadata>
<g transform="translate(0.000000,561.000000) scale(0.100000,-0.100000)"
fill="#000000" stroke="none">
<path d="M2760 5487 c-14 -8 -180 -104 -370 -213 -190 -110 -376 -217 -415
-238 -113 -62 -420 -239 -425 -246 -5 -6 -204 -121 -775 -447 -237 -135 -283
-165 -297 -194 -17 -32 -18 -116 -18 -1344 0 -1227 1 -1312 18 -1345 18 -36
61 -66 215 -149 42 -23 110 -61 150 -85 111 -68 694 -406 762 -442 33 -18 152
-86 265 -152 415 -244 618 -362 661 -385 25 -13 87 -48 139 -78 131 -75 139
-75 315 25 347 197 683 391 720 416 22 14 99 60 170 100 72 40 339 193 595
340 256 147 505 289 555 317 147 82 130 -106 130 1433 0 1313 0 1329 -20 1355
-19 26 -209 140 -580 348 -99 55 -220 125 -270 155 -106 65 -471 276 -850 492
-148 84 -299 172 -335 195 -127 81 -248 146 -281 151 -20 3 -45 -1 -59 -9z"/>
</g>
</svg>
